# xmcd CD database file
#
# Track frame offsets:
#	150
#	7265
#	35500
#	61115
#	77460
#	127810
#	161312
#	202487
#	226620
#	258335
#	277275
#	314960
#
# Disc length: 4371 seconds
#
# Revision: 9
# Processed by: cddbd v1.5.2PL0 Copyright (c) Steve Scherf et al.
# Submitted via: CDex 1.70beta2
#
DISCID=a511110c
DTITLE=山下達郎 - JOY [Disc2]
DYEAR=1989
DGENRE=Pop
TTITLE0=Introduction to “FUTARI”
TTITLE1=ふたり
TTITLE2=ドリーミング・デイ
TTITLE3=God Only Knows
TTITLE4=メリー・ゴー・ラウンド
TTITLE5=Let's Dance Baby
TTITLE6=Loveland, Island
TTITLE7=ゲット・バック・イン・ラブ
TTITLE8=恋のブギ・ウギ・トレイン
TTITLE9=Down Town
TTITLE10=Ride On Time
TTITLE11=おやすみロージー
EXTD=YEAR: 1989
EXTT0=
EXTT1=
EXTT2=
EXTT3=
EXTT4=
EXTT5=
EXTT6=
EXTT7=
EXTT8=
EXTT9=
EXTT10=
EXTT11=
PLAYORDER=
